<?xml version="1.0" encoding="UTF-8" standalone="no"?>
<!DOCTYPE svg PUBLIC "-//W3C//DTD SVG 1.1//EN"
 "http://www.w3.org/Graphics/SVG/1.1/DTD/svg11.dtd">
<!-- Generated by graphviz version 2.26.3 (20100126.1600)
 -->
<!-- Title: _anonymous_0 Pages: 1 -->
<svg width="450pt" height="101pt"
 viewBox="0.00 0.00 450.00 100.86" xmlns="http://www.w3.org/2000/svg" xmlns:xlink="http://www.w3.org/1999/xlink">
<g id="graph1" class="graph" transform="scale(0.862069 0.862069) rotate(0) translate(4 113.003)">
<title>_anonymous_0</title>
<polygon fill="white" stroke="white" points="-4,5 -4,-113.003 519,-113.003 519,5 -4,5"/>
<text text-anchor="middle" x="257" y="-25.4" font-family="Sans" font-size="14.00"> </text>
<text text-anchor="middle" x="257" y="-8.4" font-family="Sans" font-size="14.00">Mining Only What The Pool Server Requests (Centralized Mining)</text>
<!-- p2pnetwork -->
<g id="node1" class="node"><title>p2pnetwork</title>
<polygon fill="none" stroke="black" stroke-width="1.75" points="113,-104.503 1,-104.503 1,-45.5026 113,-45.5026 113,-104.503"/>
<text text-anchor="middle" x="57" y="-87.9026" font-family="Sans" font-size="14.00">Decentralized</text>
<text text-anchor="middle" x="57" y="-70.9026" font-family="Sans" font-size="14.00">Bitcoin</text>
<text text-anchor="middle" x="57" y="-53.9026" font-family="Sans" font-size="14.00">Network</text>
</g>
<!-- pool0 -->
<g id="node3" class="node"><title>pool0</title>
<polygon fill="none" stroke="black" stroke-width="1.75" points="312,-96.0026 250,-96.0026 250,-54.0026 312,-54.0026 312,-96.0026"/>
<text text-anchor="middle" x="281" y="-79.4026" font-family="Sans" font-size="14.00">Mining</text>
<text text-anchor="middle" x="281" y="-62.4026" font-family="Sans" font-size="14.00">Pool</text>
</g>
<!-- p2pnetwork&#45;&gt;pool0 -->
<g id="edge4" class="edge"><title>p2pnetwork&#45;&gt;pool0</title>
<path fill="none" stroke="black" stroke-width="1.75" d="M113.525,-75.0026C152.806,-75.0026 204.267,-75.0026 239.724,-75.0026"/>
<polygon fill="black" stroke="black" points="239.729,-78.5027 249.729,-75.0026 239.729,-71.5027 239.729,-78.5027"/>
<text text-anchor="middle" x="182" y="-79.4026" font-family="Sans" font-size="14.00">Transactions→</text>
</g>
<!-- software -->
<g id="node2" class="node"><title>software</title>
<polygon fill="none" stroke="black" stroke-width="1.75" points="514,-96.0026 434,-96.0026 434,-54.0026 514,-54.0026 514,-96.0026"/>
<text text-anchor="middle" x="474" y="-79.4026" font-family="Sans" font-size="14.00">Mining</text>
<text text-anchor="middle" x="474" y="-62.4026" font-family="Sans" font-size="14.00">Software</text>
</g>
<!-- software&#45;&gt;pool0 -->
<g id="edge8" class="edge"><title>software&#45;&gt;pool0</title>
<path fill="none" stroke="black" stroke-width="1.75" d="M433.857,-54.4349C427.997,-52.1961 421.935,-50.272 416,-49.0026 378.623,-41.0083 367.091,-39.7717 330,-49.0026 327.196,-49.7003 324.377,-50.5916 321.584,-51.6214"/>
<polygon fill="black" stroke="black" points="320.092,-48.4522 312.251,-55.577 322.824,-54.8973 320.092,-48.4522"/>
<text text-anchor="middle" x="373" y="-53.4026" font-family="Sans" font-size="14.00">←Shares</text>
</g>
<!-- pool0&#45;&gt;p2pnetwork -->
<g id="edge6" class="edge"><title>pool0&#45;&gt;p2pnetwork</title>
<path fill="none" stroke="black" stroke-width="1.75" d="M249.749,-55.577C244.034,-52.8604 237.981,-50.4911 232,-49.0026 188.871,-38.269 175.827,-41.6214 132,-49.0026 129.291,-49.4589 126.548,-50.0019 123.795,-50.6152"/>
<polygon fill="black" stroke="black" points="122.663,-47.2903 113.813,-53.1146 124.364,-54.0807 122.663,-47.2903"/>
<text text-anchor="middle" x="182" y="-53.4026" font-family="Sans" font-size="14.00">←Blocks</text>
</g>
<!-- pool0&#45;&gt;software -->
<g id="edge2" class="edge"><title>pool0&#45;&gt;software</title>
<path fill="none" stroke="black" stroke-width="1.75" d="M312.009,-75.0026C342.073,-75.0026 388.196,-75.0026 423.548,-75.0026"/>
<polygon fill="black" stroke="black" points="423.677,-78.5027 433.677,-75.0026 423.677,-71.5027 423.677,-78.5027"/>
<text text-anchor="middle" x="373" y="-96.4026" font-family="Sans" font-size="14.00">GetWork Or</text>
<text text-anchor="middle" x="373" y="-79.4026" font-family="Sans" font-size="14.00">Stratum→</text>
</g>
</g>
</svg>
