<?xml version="1.0" encoding="UTF-8" standalone="no"?>
<!DOCTYPE svg PUBLIC "-//W3C//DTD SVG 1.1//EN"
 "http://www.w3.org/Graphics/SVG/1.1/DTD/svg11.dtd">
<!-- Generated by graphviz version 2.26.3 (20100126.1600)
 -->
<!-- Title: _anonymous_0 Pages: 1 -->
<svg width="450pt" height="179pt"
 viewBox="0.00 0.00 450.00 178.71" xmlns="http://www.w3.org/2000/svg" xmlns:xlink="http://www.w3.org/1999/xlink">
<g id="graph1" class="graph" transform="scale(0.805009 0.805009) rotate(0) translate(4 218)">
<title>_anonymous_0</title>
<polygon fill="white" stroke="white" points="-4,5 -4,-218 556,-218 556,5 -4,5"/>
<text text-anchor="middle" x="275.5" y="-25.4" font-family="Sans" font-size="14.00"> </text>
<text text-anchor="middle" x="275.5" y="-8.4" font-family="Sans" font-size="14.00">Evaluating Pool Requests &amp; Creating Your Own Blocks (Decentralized Mining)</text>
<g id="graph2" class="cluster"><title>cluster_network</title>
<polygon fill="none" stroke="black" stroke-width="1.75" points="20.5,-50 20.5,-200 150.5,-200 150.5,-50 20.5,-50"/>
</g>
<!-- p2pnetwork0 -->
<!-- pool0 -->
<g id="node6" class="node"><title>pool0</title>
<polygon fill="none" stroke="black" stroke-width="1.75" points="347.5,-201 285.5,-201 285.5,-159 347.5,-159 347.5,-201"/>
<text text-anchor="middle" x="316.5" y="-184.4" font-family="Sans" font-size="14.00">Mining</text>
<text text-anchor="middle" x="316.5" y="-167.4" font-family="Sans" font-size="14.00">Pool</text>
</g>
<!-- p2pnetwork0&#45;&gt;pool0 -->
<g id="edge5" class="edge"><title>p2pnetwork0&#45;&gt;pool0</title>
<path fill="none" stroke="black" stroke-width="1.75" d="M140.537,-180C181.888,-180 237.638,-180 275.213,-180"/>
<polygon fill="black" stroke="black" points="275.302,-183.5 285.302,-180 275.302,-176.5 275.302,-183.5"/>
<text text-anchor="middle" x="208.5" y="-184.4" font-family="Sans" font-size="14.00">Transactions→</text>
</g>
<!-- network_label -->
<g id="node3" class="node"><title>network_label</title>
<text text-anchor="middle" x="85.5" y="-137.9" font-family="Sans" font-size="14.00">Decentralized</text>
<text text-anchor="middle" x="85.5" y="-120.9" font-family="Sans" font-size="14.00">Bitcoin</text>
<text text-anchor="middle" x="85.5" y="-103.9" font-family="Sans" font-size="14.00">Network</text>
</g>
<!-- p2pnetwork1 -->
<!-- bitcoind -->
<g id="node7" class="node"><title>bitcoind</title>
<polygon fill="none" stroke="black" stroke-width="1.75" points="538.5,-91 458.5,-91 458.5,-49 538.5,-49 538.5,-91"/>
<text text-anchor="middle" x="498.5" y="-74.4" font-family="Sans" font-size="14.00">Local</text>
<text text-anchor="middle" x="498.5" y="-57.4" font-family="Sans" font-size="14.00">Full Node</text>
</g>
<!-- p2pnetwork1&#45;&gt;bitcoind -->
<g id="edge11" class="edge"><title>p2pnetwork1&#45;&gt;bitcoind</title>
<path fill="none" stroke="black" stroke-width="1.75" d="M140.77,-70C221.548,-70 370.667,-70 448.404,-70"/>
<polygon fill="black" stroke="black" points="448.431,-73.5001 458.431,-70 448.43,-66.5001 448.431,-73.5001"/>
<text text-anchor="middle" x="316.5" y="-74.4" font-family="Sans" font-size="14.00">Transactions→</text>
</g>
<!-- software -->
<g id="node5" class="node"><title>software</title>
<polygon fill="none" stroke="black" stroke-width="1.75" points="538.5,-201 458.5,-201 458.5,-159 538.5,-159 538.5,-201"/>
<text text-anchor="middle" x="498.5" y="-184.4" font-family="Sans" font-size="14.00">Mining</text>
<text text-anchor="middle" x="498.5" y="-167.4" font-family="Sans" font-size="14.00">Software</text>
</g>
<!-- software&#45;&gt;pool0 -->
<g id="edge9" class="edge"><title>software&#45;&gt;pool0</title>
<path fill="none" stroke="black" stroke-width="1.75" d="M458.264,-161.923C455.669,-161.167 453.067,-160.513 450.5,-160 417.378,-153.376 407.813,-154.418 374.5,-160 368.919,-160.935 363.157,-162.343 357.529,-163.988"/>
<polygon fill="black" stroke="black" points="356.074,-160.779 347.612,-167.153 358.202,-167.447 356.074,-160.779"/>
<text text-anchor="middle" x="412.5" y="-164.4" font-family="Sans" font-size="14.00">←Shares</text>
</g>
<!-- software&#45;&gt;bitcoind -->
<g id="edge17" class="edge"><title>software&#45;&gt;bitcoind</title>
<path fill="none" stroke="black" stroke-width="1.75" d="M479.834,-158.806C466.643,-139.133 464.966,-119.461 474.804,-99.7883"/>
<polygon fill="black" stroke="black" points="477.886,-101.451 479.928,-91.0547 471.848,-97.9088 477.886,-101.451"/>
</g>
<!-- pool0&#45;&gt;p2pnetwork0 -->
<g id="edge7" class="edge"><title>pool0&#45;&gt;p2pnetwork0</title>
<path fill="none" stroke="black" stroke-width="1.75" d="M285.388,-167.153C276.823,-164.204 267.429,-161.496 258.5,-160 214.667,-152.655 202.548,-154.075 158.5,-160 149.7,-161.184 140.46,-163.136 131.625,-165.368"/>
<polygon fill="black" stroke="black" points="130.621,-162.014 121.867,-167.982 132.432,-168.775 130.621,-162.014"/>
<text text-anchor="middle" x="208.5" y="-164.4" font-family="Sans" font-size="14.00">←Blocks</text>
</g>
<!-- pool0&#45;&gt;software -->
<g id="edge3" class="edge"><title>pool0&#45;&gt;software</title>
<path fill="none" stroke="black" stroke-width="1.75" d="M347.787,-180C375.391,-180 416.12,-180 448.281,-180"/>
<polygon fill="black" stroke="black" points="448.395,-183.5 458.395,-180 448.395,-176.5 448.395,-183.5"/>
<text text-anchor="middle" x="412.5" y="-201.4" font-family="Sans" font-size="14.00">GetBlock</text>
<text text-anchor="middle" x="412.5" y="-184.4" font-family="Sans" font-size="14.00">Template→</text>
</g>
<!-- bitcoind&#45;&gt;p2pnetwork1 -->
<g id="edge13" class="edge"><title>bitcoind&#45;&gt;p2pnetwork1</title>
<path fill="none" stroke="black" stroke-width="1.75" d="M458.239,-62.2922C432.186,-57.7034 397.471,-52.333 366.5,-50 292.543,-44.429 207.603,-52.476 150.644,-59.9622"/>
<polygon fill="black" stroke="black" points="150.139,-56.4986 140.695,-61.3015 151.073,-63.436 150.139,-56.4986"/>
<text text-anchor="middle" x="316.5" y="-54.4" font-family="Sans" font-size="14.00">←Blocks</text>
</g>
<!-- bitcoind&#45;&gt;software -->
<g id="edge15" class="edge"><title>bitcoind&#45;&gt;software</title>
<path fill="none" stroke="black" stroke-width="1.75" d="M517.072,-91.0547C530.318,-110.727 532.049,-130.4 522.266,-150.072"/>
<polygon fill="black" stroke="black" points="519.186,-148.406 517.166,-158.806 525.231,-151.935 519.186,-148.406"/>
</g>
</g>
</svg>
