<?xml version="1.0" encoding="UTF-8" standalone="no"?>
<!DOCTYPE svg PUBLIC "-//W3C//DTD SVG 1.1//EN"
 "http://www.w3.org/Graphics/SVG/1.1/DTD/svg11.dtd">
<!-- Generated by graphviz version 2.26.3 (20100126.1600)
 -->
<!-- Title: _anonymous_0 Pages: 1 -->
<svg width="450pt" height="116pt"
 viewBox="0.00 0.00 450.00 115.85" xmlns="http://www.w3.org/2000/svg" xmlns:xlink="http://www.w3.org/1999/xlink">
<g id="graph1" class="graph" transform="scale(0.669643 0.669643) rotate(0) translate(4 169)">
<title>_anonymous_0</title>
<polygon fill="white" stroke="white" points="-4,5 -4,-169 669,-169 669,5 -4,5"/>
<text text-anchor="middle" x="332" y="-25.4" font-family="Sans" font-size="14.00"> </text>
<text text-anchor="middle" x="332" y="-8.4" font-family="Sans" font-size="14.00">Winning Tickets Must Be Part Of The Longest Chain To Be Actual Winners</text>
<g id="graph2" class="cluster"><title>cluster_mainchain</title>
</g>
<!-- invis1 -->
<g id="node1" class="node"><title>invis1</title>
<text text-anchor="middle" x="56" y="-83.9" font-family="Sans" font-size="14.00"> </text>
<text text-anchor="middle" x="56" y="-66.9" font-family="Sans" font-size="14.00">Losers</text>
<text text-anchor="middle" x="56" y="-49.9" font-family="Sans" font-size="14.00">(Not Longest)</text>
</g>
<!-- invis0 -->
<g id="node2" class="node"><title>invis0</title>
<text text-anchor="middle" x="56" y="-132.4" font-family="Sans" font-size="14.00">Longest</text>
<text text-anchor="middle" x="56" y="-115.4" font-family="Sans" font-size="14.00">Chain</text>
</g>
<!-- block0 -->
<g id="node4" class="node"><title>block0</title>
<polygon fill="none" stroke="black" stroke-width="1.75" points="203,-149 145,-149 145,-107 203,-107 203,-149"/>
<text text-anchor="middle" x="174" y="-132.4" font-family="Sans" font-size="14.00">←#47</text>
<text text-anchor="middle" x="174" y="-115.4" font-family="Sans" font-size="14.00">#16→</text>
</g>
<!-- invis0&#45;&gt;block0 -->
<g id="edge3" class="edge"><title>invis0&#45;&gt;block0</title>
<path fill="none" stroke="black" stroke-width="1.75" stroke-dasharray="5,2" d="M91.7241,-128C105.13,-128 120.444,-128 134.197,-128"/>
<polygon fill="black" stroke="black" points="134.352,-131.5 144.352,-128 134.352,-124.5 134.352,-131.5"/>
</g>
<!-- block1 -->
<g id="node5" class="node"><title>block1</title>
<polygon fill="none" stroke="black" stroke-width="1.75" points="277,-149 219,-149 219,-107 277,-107 277,-149"/>
<text text-anchor="middle" x="248" y="-132.4" font-family="Sans" font-size="14.00">←#16</text>
<text text-anchor="middle" x="248" y="-115.4" font-family="Sans" font-size="14.00">#90→</text>
</g>
<!-- block0&#45;&gt;block1 -->
<g id="edge5" class="edge"><title>block0&#45;&gt;block1</title>
<path fill="none" stroke="black" stroke-width="1.75" d="M203.672,-128C205.18,-128 206.705,-128 208.236,-128"/>
<polygon fill="black" stroke="black" points="208.321,-131.5 218.321,-128 208.321,-124.5 208.321,-131.5"/>
</g>
<!-- block1_1 -->
<g id="node14" class="node"><title>block1_1</title>
<polygon fill="lightgrey" stroke="black" stroke-width="1.75" points="277,-91 219,-91 219,-49 277,-49 277,-91"/>
<text text-anchor="middle" x="248" y="-74.4" font-family="Sans" font-size="14.00">←#16</text>
<text text-anchor="middle" x="248" y="-57.4" font-family="Sans" font-size="14.00">#71</text>
</g>
<!-- block0&#45;&gt;block1_1 -->
<g id="edge12" class="edge"><title>block0&#45;&gt;block1_1</title>
<path fill="none" stroke="black" stroke-width="1.75" d="M201.135,-106.732C204.955,-103.738 208.927,-100.624 212.871,-97.5334"/>
<polygon fill="black" stroke="black" points="215.157,-100.189 220.869,-91.2651 210.839,-94.6793 215.157,-100.189"/>
</g>
<!-- block2 -->
<g id="node6" class="node"><title>block2</title>
<polygon fill="none" stroke="black" stroke-width="1.75" points="351,-149 293,-149 293,-107 351,-107 351,-149"/>
<text text-anchor="middle" x="322" y="-132.4" font-family="Sans" font-size="14.00">←#90</text>
<text text-anchor="middle" x="322" y="-115.4" font-family="Sans" font-size="14.00">#19→</text>
</g>
<!-- block1&#45;&gt;block2 -->
<g id="edge6" class="edge"><title>block1&#45;&gt;block2</title>
<path fill="none" stroke="black" stroke-width="1.75" d="M277.672,-128C279.18,-128 280.705,-128 282.236,-128"/>
<polygon fill="black" stroke="black" points="282.321,-131.5 292.321,-128 282.321,-124.5 282.321,-131.5"/>
</g>
<!-- block3 -->
<g id="node7" class="node"><title>block3</title>
<polygon fill="none" stroke="black" stroke-width="1.75" points="425,-149 367,-149 367,-107 425,-107 425,-149"/>
<text text-anchor="middle" x="396" y="-132.4" font-family="Sans" font-size="14.00">←#19</text>
<text text-anchor="middle" x="396" y="-115.4" font-family="Sans" font-size="14.00">#47→</text>
</g>
<!-- block2&#45;&gt;block3 -->
<g id="edge7" class="edge"><title>block2&#45;&gt;block3</title>
<path fill="none" stroke="black" stroke-width="1.75" d="M351.672,-128C353.18,-128 354.705,-128 356.236,-128"/>
<polygon fill="black" stroke="black" points="356.321,-131.5 366.321,-128 356.321,-124.5 356.321,-131.5"/>
</g>
<!-- block4 -->
<g id="node8" class="node"><title>block4</title>
<polygon fill="none" stroke="black" stroke-width="1.75" points="499,-149 441,-149 441,-107 499,-107 499,-149"/>
<text text-anchor="middle" x="470" y="-132.4" font-family="Sans" font-size="14.00">←#47</text>
<text text-anchor="middle" x="470" y="-115.4" font-family="Sans" font-size="14.00">#88→</text>
</g>
<!-- block3&#45;&gt;block4 -->
<g id="edge8" class="edge"><title>block3&#45;&gt;block4</title>
<path fill="none" stroke="black" stroke-width="1.75" d="M425.672,-128C427.18,-128 428.705,-128 430.236,-128"/>
<polygon fill="black" stroke="black" points="430.321,-131.5 440.321,-128 430.321,-124.5 430.321,-131.5"/>
</g>
<!-- block4_1 -->
<g id="node16" class="node"><title>block4_1</title>
<polygon fill="lightgrey" stroke="black" stroke-width="1.75" points="499,-91 441,-91 441,-49 499,-49 499,-91"/>
<text text-anchor="middle" x="470" y="-74.4" font-family="Sans" font-size="14.00">←#47</text>
<text text-anchor="middle" x="470" y="-57.4" font-family="Sans" font-size="14.00">#22</text>
</g>
<!-- block3&#45;&gt;block4_1 -->
<g id="edge14" class="edge"><title>block3&#45;&gt;block4_1</title>
<path fill="none" stroke="black" stroke-width="1.75" d="M423.135,-106.732C426.955,-103.738 430.927,-100.624 434.871,-97.5334"/>
<polygon fill="black" stroke="black" points="437.157,-100.189 442.869,-91.2651 432.839,-94.6793 437.157,-100.189"/>
</g>
<!-- block5 -->
<g id="node9" class="node"><title>block5</title>
<polygon fill="none" stroke="black" stroke-width="1.75" points="573,-149 515,-149 515,-107 573,-107 573,-149"/>
<text text-anchor="middle" x="544" y="-132.4" font-family="Sans" font-size="14.00">←#88</text>
<text text-anchor="middle" x="544" y="-115.4" font-family="Sans" font-size="14.00">#3→</text>
</g>
<!-- block4&#45;&gt;block5 -->
<g id="edge9" class="edge"><title>block4&#45;&gt;block5</title>
<path fill="none" stroke="black" stroke-width="1.75" d="M499.672,-128C501.18,-128 502.705,-128 504.236,-128"/>
<polygon fill="black" stroke="black" points="504.321,-131.5 514.321,-128 504.321,-124.5 504.321,-131.5"/>
</g>
<!-- block6 -->
<g id="node10" class="node"><title>block6</title>
<polygon fill="none" stroke="black" stroke-width="1.75" points="647,-149 589,-149 589,-107 647,-107 647,-149"/>
<text text-anchor="middle" x="618" y="-132.4" font-family="Sans" font-size="14.00">←#3</text>
<text text-anchor="middle" x="618" y="-115.4" font-family="Sans" font-size="14.00">#60→</text>
</g>
<!-- block5&#45;&gt;block6 -->
<g id="edge10" class="edge"><title>block5&#45;&gt;block6</title>
<path fill="none" stroke="black" stroke-width="1.75" d="M573.672,-128C575.18,-128 576.705,-128 578.236,-128"/>
<polygon fill="black" stroke="black" points="578.321,-131.5 588.321,-128 578.321,-124.5 578.321,-131.5"/>
</g>
<!-- block5_1 -->
<g id="node17" class="node"><title>block5_1</title>
<polygon fill="lightgrey" stroke="black" stroke-width="1.75" points="573,-91 515,-91 515,-49 573,-49 573,-91"/>
<text text-anchor="middle" x="544" y="-74.4" font-family="Sans" font-size="14.00">←#22</text>
<text text-anchor="middle" x="544" y="-57.4" font-family="Sans" font-size="14.00">#94</text>
</g>
<!-- block4_1&#45;&gt;block5_1 -->
<g id="edge15" class="edge"><title>block4_1&#45;&gt;block5_1</title>
<path fill="none" stroke="black" stroke-width="1.75" d="M499.672,-70C501.18,-70 502.705,-70 504.236,-70"/>
<polygon fill="black" stroke="black" points="504.321,-73.5001 514.321,-70 504.321,-66.5001 504.321,-73.5001"/>
</g>
</g>
</svg>
