<?xml version="1.0" encoding="UTF-8" standalone="no"?>
<!DOCTYPE svg PUBLIC "-//W3C//DTD SVG 1.1//EN"
 "http://www.w3.org/Graphics/SVG/1.1/DTD/svg11.dtd">
<!-- Generated by graphviz version 2.26.3 (20100126.1600)
 -->
<!-- Title: _anonymous_0 Pages: 1 -->
<svg width="450pt" height="143pt"
 viewBox="0.00 0.00 450.00 143.31" xmlns="http://www.w3.org/2000/svg" xmlns:xlink="http://www.w3.org/1999/xlink">
<g id="graph1" class="graph" transform="scale(0.692308 0.692308) rotate(0) translate(4 203)">
<title>_anonymous_0</title>
<polygon fill="white" stroke="white" points="-4,5 -4,-203 647,-203 647,5 -4,5"/>
<text text-anchor="middle" x="321" y="-42.4" font-family="Sans" font-size="14.00"> </text>
<text text-anchor="middle" x="321" y="-25.4" font-family="Sans" font-size="14.00">A Lucky Attacker Finds Two Blocks Before Honest Miners Find One,</text>
<text text-anchor="middle" x="321" y="-8.4" font-family="Sans" font-size="14.00">Creating A New Longest Chain And Replacing An Existing Block</text>
<g id="graph2" class="cluster"><title>cluster_honest</title>
</g>
<g id="graph3" class="cluster"><title>cluster_attack</title>
</g>
<!-- invis1 -->
<g id="node1" class="node"><title>invis1</title>
<text text-anchor="middle" x="43" y="-117.9" font-family="Sans" font-size="14.00"> </text>
<text text-anchor="middle" x="43" y="-100.9" font-family="Sans" font-size="14.00">Attacker&#39;s</text>
<text text-anchor="middle" x="43" y="-83.9" font-family="Sans" font-size="14.00">Blocks</text>
</g>
<!-- invis0 -->
<g id="node2" class="node"><title>invis0</title>
<text text-anchor="middle" x="43" y="-166.4" font-family="Sans" font-size="14.00">Honest</text>
<text text-anchor="middle" x="43" y="-149.4" font-family="Sans" font-size="14.00">Blocks</text>
</g>
<!-- block0 -->
<g id="node4" class="node"><title>block0</title>
<polygon fill="none" stroke="black" stroke-width="1.75" points="177,-183 119,-183 119,-141 177,-141 177,-183"/>
<text text-anchor="middle" x="148" y="-166.4" font-family="Sans" font-size="14.00">←#47</text>
<text text-anchor="middle" x="148" y="-149.4" font-family="Sans" font-size="14.00">#16→</text>
</g>
<!-- invis0&#45;&gt;block0 -->
<g id="edge6" class="edge"><title>invis0&#45;&gt;block0</title>
<path fill="none" stroke="black" stroke-width="1.75" stroke-dasharray="5,2" d="M75.6471,-162C85.9575,-162 97.4659,-162 108.217,-162"/>
<polygon fill="black" stroke="black" points="108.229,-165.5 118.229,-162 108.229,-158.5 108.229,-165.5"/>
</g>
<!-- block1 -->
<g id="node5" class="node"><title>block1</title>
<polygon fill="none" stroke="black" stroke-width="1.75" points="251,-183 193,-183 193,-141 251,-141 251,-183"/>
<text text-anchor="middle" x="222" y="-166.4" font-family="Sans" font-size="14.00">←#16</text>
<text text-anchor="middle" x="222" y="-149.4" font-family="Sans" font-size="14.00">#90→</text>
</g>
<!-- block0&#45;&gt;block1 -->
<g id="edge8" class="edge"><title>block0&#45;&gt;block1</title>
<path fill="none" stroke="black" stroke-width="1.75" d="M177.672,-162C179.18,-162 180.705,-162 182.236,-162"/>
<polygon fill="black" stroke="black" points="182.321,-165.5 192.321,-162 182.321,-158.5 182.321,-165.5"/>
</g>
<!-- block2_1 -->
<g id="node6" class="node"><title>block2_1</title>
<polygon fill="lightgrey" stroke="black" stroke-width="1.75" points="327,-183 269,-183 269,-141 327,-141 327,-183"/>
<text text-anchor="middle" x="298" y="-166.4" font-family="Sans" font-size="14.00">←#90</text>
<text text-anchor="middle" x="298" y="-149.4" font-family="Sans" font-size="14.00">#71→</text>
</g>
<!-- block1&#45;&gt;block2_1 -->
<g id="edge15" class="edge"><title>block1&#45;&gt;block2_1</title>
<path fill="none" stroke="black" stroke-width="1.75" d="M251.601,-162C253.75,-162 255.937,-162 258.132,-162"/>
<polygon fill="black" stroke="black" points="258.355,-165.5 268.355,-162 258.355,-158.5 258.355,-165.5"/>
</g>
<!-- block2 -->
<g id="node12" class="node"><title>block2</title>
<polygon fill="none" stroke="black" stroke-width="1.75" points="327,-117 269,-117 269,-75 327,-75 327,-117"/>
<text text-anchor="middle" x="298" y="-100.4" font-family="Sans" font-size="14.00">←#90</text>
<text text-anchor="middle" x="298" y="-83.4" font-family="Sans" font-size="14.00">#19→</text>
</g>
<!-- block1&#45;&gt;block2 -->
<g id="edge9" class="edge"><title>block1&#45;&gt;block2</title>
<path fill="none" stroke="black" stroke-width="1.75" d="M246.465,-140.754C252.567,-135.455 259.205,-129.69 265.624,-124.116"/>
<polygon fill="black" stroke="black" points="268.325,-126.406 273.581,-117.206 263.735,-121.121 268.325,-126.406"/>
</g>
<!-- block4 -->
<g id="node8" class="node"><title>block4</title>
<polygon fill="none" stroke="black" stroke-width="1.75" points="477,-183 419,-183 419,-141 477,-141 477,-183"/>
<text text-anchor="middle" x="448" y="-166.4" font-family="Sans" font-size="14.00">←#47</text>
<text text-anchor="middle" x="448" y="-149.4" font-family="Sans" font-size="14.00">#88→</text>
</g>
<!-- block2_1&#45;&gt;block4 -->
<!-- block5 -->
<g id="node9" class="node"><title>block5</title>
<polygon fill="none" stroke="black" stroke-width="1.75" points="551,-183 493,-183 493,-141 551,-141 551,-183"/>
<text text-anchor="middle" x="522" y="-166.4" font-family="Sans" font-size="14.00">←#88</text>
<text text-anchor="middle" x="522" y="-149.4" font-family="Sans" font-size="14.00">#3→</text>
</g>
<!-- block4&#45;&gt;block5 -->
<g id="edge12" class="edge"><title>block4&#45;&gt;block5</title>
<path fill="none" stroke="black" stroke-width="1.75" d="M477.672,-162C479.18,-162 480.705,-162 482.236,-162"/>
<polygon fill="black" stroke="black" points="482.321,-165.5 492.321,-162 482.321,-158.5 482.321,-165.5"/>
</g>
<!-- block6 -->
<g id="node10" class="node"><title>block6</title>
<polygon fill="none" stroke="black" stroke-width="1.75" points="625,-183 567,-183 567,-141 625,-141 625,-183"/>
<text text-anchor="middle" x="596" y="-166.4" font-family="Sans" font-size="14.00">←#3</text>
<text text-anchor="middle" x="596" y="-149.4" font-family="Sans" font-size="14.00">#60→</text>
</g>
<!-- block5&#45;&gt;block6 -->
<g id="edge13" class="edge"><title>block5&#45;&gt;block6</title>
<path fill="none" stroke="black" stroke-width="1.75" d="M551.672,-162C553.18,-162 554.705,-162 556.236,-162"/>
<polygon fill="black" stroke="black" points="556.321,-165.5 566.321,-162 556.321,-158.5 556.321,-165.5"/>
</g>
<!-- block3 -->
<g id="node13" class="node"><title>block3</title>
<polygon fill="none" stroke="black" stroke-width="1.75" points="401,-117 343,-117 343,-75 401,-75 401,-117"/>
<text text-anchor="middle" x="372" y="-100.4" font-family="Sans" font-size="14.00">←#19</text>
<text text-anchor="middle" x="372" y="-83.4" font-family="Sans" font-size="14.00">#47→</text>
</g>
<!-- block2&#45;&gt;block3 -->
<g id="edge10" class="edge"><title>block2&#45;&gt;block3</title>
<path fill="none" stroke="black" stroke-width="1.75" d="M327.672,-96C329.18,-96 330.705,-96 332.236,-96"/>
<polygon fill="black" stroke="black" points="332.321,-99.5001 342.321,-96 332.321,-92.5001 332.321,-99.5001"/>
</g>
<!-- block3&#45;&gt;block4 -->
<g id="edge11" class="edge"><title>block3&#45;&gt;block4</title>
<path fill="none" stroke="black" stroke-width="1.75" d="M396.465,-117.246C402.567,-122.545 409.205,-128.31 415.624,-133.884"/>
<polygon fill="black" stroke="black" points="413.735,-136.879 423.581,-140.794 418.325,-131.594 413.735,-136.879"/>
</g>
</g>
</svg>
