<?xml version="1.0" encoding="UTF-8" standalone="no"?>
<!DOCTYPE svg PUBLIC "-//W3C//DTD SVG 1.1//EN"
 "http://www.w3.org/Graphics/SVG/1.1/DTD/svg11.dtd">
<!-- Generated by graphviz version 2.26.3 (20100126.1600)
 -->
<!-- Title: _anonymous_0 Pages: 1 -->
<svg width="450pt" height="162pt"
 viewBox="0.00 0.00 450.00 161.83" xmlns="http://www.w3.org/2000/svg" xmlns:xlink="http://www.w3.org/1999/xlink">
<g id="graph1" class="graph" transform="scale(0.709779 0.709779) rotate(0) translate(4 224)">
<title>_anonymous_0</title>
<polygon fill="white" stroke="white" points="-4,5 -4,-224 631,-224 631,5 -4,5"/>
<text text-anchor="middle" x="313" y="-25.4" font-family="Sans" font-size="14.00"> </text>
<text text-anchor="middle" x="313" y="-8.4" font-family="Sans" font-size="14.00">Peer&#45;To&#45;Peer Creating Your Own Blocks (P2Pool Decentralized Mining)</text>
<g id="graph2" class="cluster"><title>cluster_p2pool</title>
<polygon fill="none" stroke="black" stroke-width="1.75" points="348,-60 348,-210 444,-210 444,-60 348,-60"/>
</g>
<!-- p2pnetwork -->
<g id="node1" class="node"><title>p2pnetwork</title>
<polygon fill="none" stroke="black" stroke-width="1.75" points="113,-220 1,-220 1,-144 113,-144 113,-220"/>
<text text-anchor="middle" x="57" y="-203.4" font-family="Sans" font-size="14.00">Decentralized</text>
<text text-anchor="middle" x="57" y="-186.4" font-family="Sans" font-size="14.00">Bitcoin</text>
<text text-anchor="middle" x="57" y="-169.4" font-family="Sans" font-size="14.00">Network</text>
<text text-anchor="middle" x="57" y="-152.4" font-family="Sans" font-size="14.00">(Block Chain)</text>
</g>
<!-- bitcoind -->
<g id="node2" class="node"><title>bitcoind</title>
<polygon fill="none" stroke="black" stroke-width="1.75" points="224,-211 144,-211 144,-169 224,-169 224,-211"/>
<text text-anchor="middle" x="184" y="-194.4" font-family="Sans" font-size="14.00">Local</text>
<text text-anchor="middle" x="184" y="-177.4" font-family="Sans" font-size="14.00">Full Node</text>
</g>
<!-- p2pnetwork&#45;&gt;bitcoind -->
<g id="edge3" class="edge"><title>p2pnetwork&#45;&gt;bitcoind</title>
<path fill="none" stroke="black" stroke-width="1.75" d="M113.814,-185.579C120.488,-185.999 127.263,-186.426 133.837,-186.84"/>
<polygon fill="black" stroke="black" points="133.76,-190.342 143.961,-187.478 134.201,-183.356 133.76,-190.342"/>
</g>
<!-- bitcoind&#45;&gt;p2pnetwork -->
<g id="edge5" class="edge"><title>bitcoind&#45;&gt;p2pnetwork</title>
<path fill="none" stroke="black" stroke-width="1.75" d="M143.948,-170.565C138.686,-168.69 133.284,-167.085 128,-166 126.53,-165.698 125.044,-165.459 123.546,-165.277"/>
<polygon fill="black" stroke="black" points="123.678,-161.78 113.539,-164.853 123.382,-168.773 123.678,-161.78"/>
<text text-anchor="middle" x="125" y="-170.4" font-family="Sans" font-size="14.00"> </text>
</g>
<!-- pool0 -->
<!-- bitcoind&#45;&gt;pool0 -->
<g id="edge7" class="edge"><title>bitcoind&#45;&gt;pool0</title>
<path fill="none" stroke="black" stroke-width="1.75" d="M224.375,-190C263.138,-190 321.206,-190 358.852,-190"/>
<polygon fill="black" stroke="black" points="358.895,-193.5 368.895,-190 358.895,-186.5 358.895,-193.5"/>
<text text-anchor="middle" x="290" y="-194.4" font-family="Sans" font-size="14.00">Transactions→</text>
</g>
<!-- poolnetwork -->
<g id="node3" class="node"><title>poolnetwork</title>
<polygon fill="none" stroke="black" stroke-width="1.75" points="113,-118 1,-118 1,-42 113,-42 113,-118"/>
<text text-anchor="middle" x="57" y="-101.4" font-family="Sans" font-size="14.00">Decentralized</text>
<text text-anchor="middle" x="57" y="-84.4" font-family="Sans" font-size="14.00">P2Pool</text>
<text text-anchor="middle" x="57" y="-67.4" font-family="Sans" font-size="14.00">Network</text>
<text text-anchor="middle" x="57" y="-50.4" font-family="Sans" font-size="14.00">(Share chain)</text>
</g>
<!-- pool1 -->
<!-- poolnetwork&#45;&gt;pool1 -->
<g id="edge15" class="edge"><title>poolnetwork&#45;&gt;pool1</title>
<path fill="none" stroke="black" stroke-width="1.75" d="M113.741,-80C183.443,-80 299.702,-80 358.905,-80"/>
<polygon fill="black" stroke="black" points="358.929,-83.5001 368.929,-80 358.929,-76.5001 358.929,-83.5001"/>
<text text-anchor="middle" x="184" y="-84.4" font-family="Sans" font-size="14.00"> &#160;&#160;&#160;&#160;&#160;&#160;&#160;&#160;&#160;&#160;&#160;&#160;&#160;&#160;Other Miners&#39; Shares→</text>
</g>
<!-- pool0&#45;&gt;bitcoind -->
<g id="edge9" class="edge"><title>pool0&#45;&gt;bitcoind</title>
<path fill="none" stroke="black" stroke-width="1.75" d="M368.878,-178.205C359.867,-174.86 349.664,-171.674 340,-170 296.208,-162.415 283.792,-162.415 240,-170 238.055,-170.337 236.087,-170.735 234.112,-171.184"/>
<polygon fill="black" stroke="black" points="233.011,-167.854 224.238,-173.794 234.8,-174.622 233.011,-167.854"/>
<text text-anchor="middle" x="290" y="-174.4" font-family="Sans" font-size="14.00">←Blocks</text>
</g>
<!-- p2pool_label -->
<g id="node6" class="node"><title>p2pool_label</title>
<text text-anchor="middle" x="396" y="-147.9" font-family="Sans" font-size="14.00">Local</text>
<text text-anchor="middle" x="396" y="-130.9" font-family="Sans" font-size="14.00">P2Pool</text>
<text text-anchor="middle" x="396" y="-113.9" font-family="Sans" font-size="14.00">Software</text>
</g>
<!-- software -->
<g id="node8" class="node"><title>software</title>
<polygon fill="none" stroke="black" stroke-width="1.75" points="626,-156 546,-156 546,-114 626,-114 626,-156"/>
<text text-anchor="middle" x="586" y="-139.4" font-family="Sans" font-size="14.00">Mining</text>
<text text-anchor="middle" x="586" y="-122.4" font-family="Sans" font-size="14.00">Software</text>
</g>
<!-- p2pool_label&#45;&gt;software -->
<g id="edge11" class="edge"><title>p2pool_label&#45;&gt;software</title>
<path fill="none" stroke="black" stroke-width="1.75" d="M436.294,-135C465.263,-135 504.527,-135 535.576,-135"/>
<polygon fill="black" stroke="black" points="535.764,-138.5 545.764,-135 535.764,-131.5 535.764,-138.5"/>
<text text-anchor="middle" x="495" y="-156.4" font-family="Sans" font-size="14.00">GetBlock Or</text>
<text text-anchor="middle" x="495" y="-139.4" font-family="Sans" font-size="14.00">Stratum→</text>
</g>
<!-- pool1&#45;&gt;poolnetwork -->
<g id="edge17" class="edge"><title>pool1&#45;&gt;poolnetwork</title>
<path fill="none" stroke="black" stroke-width="1.75" d="M368.967,-74.3609C321.624,-65.2786 220.683,-49.4471 136,-60 131.893,-60.5117 127.694,-61.1676 123.476,-61.9281"/>
<polygon fill="black" stroke="black" points="122.769,-58.5001 113.638,-63.8735 124.127,-65.3671 122.769,-58.5001"/>
<text text-anchor="middle" x="184" y="-64.4" font-family="Sans" font-size="14.00">←Your Shares</text>
</g>
<!-- software&#45;&gt;p2pool_label -->
<g id="edge13" class="edge"><title>software&#45;&gt;p2pool_label</title>
<path fill="none" stroke="black" stroke-width="1.75" d="M545.764,-116.923C543.169,-116.167 540.567,-115.513 538,-115 500.52,-107.504 489.661,-108.477 452,-115 450.055,-115.337 448.087,-115.735 446.112,-116.184"/>
<polygon fill="black" stroke="black" points="445.011,-112.854 436.238,-118.794 446.8,-119.622 445.011,-112.854"/>
<text text-anchor="middle" x="495" y="-119.4" font-family="Sans" font-size="14.00">←Shares</text>
</g>
</g>
</svg>
