<?xml version="1.0" encoding="UTF-8" standalone="no"?>
<!DOCTYPE svg PUBLIC "-//W3C//DTD SVG 1.1//EN"
 "http://www.w3.org/Graphics/SVG/1.1/DTD/svg11.dtd">
<!-- Generated by graphviz version 2.26.3 (20100126.1600)
 -->
<!-- Title: _anonymous_0 Pages: 1 -->
<svg width="450pt" height="99pt"
 viewBox="0.00 0.00 450.00 98.91" xmlns="http://www.w3.org/2000/svg" xmlns:xlink="http://www.w3.org/1999/xlink">
<g id="graph1" class="graph" transform="scale(0.849057 0.849057) rotate(0) translate(4 112.493)">
<title>_anonymous_0</title>
<polygon fill="white" stroke="white" points="-4,5 -4,-112.493 527,-112.493 527,5 -4,5"/>
<text text-anchor="middle" x="261" y="-25.4" font-family="Sans" font-size="14.00"> </text>
<text text-anchor="middle" x="261" y="-8.4" font-family="Sans" font-size="14.00">Creating Your Own Blocks With Solo Mining (Decentralized Mining)</text>
<!-- p2pnetwork -->
<g id="node1" class="node"><title>p2pnetwork</title>
<polygon fill="none" stroke="black" stroke-width="1.75" points="113,-103.993 1,-103.993 1,-44.9932 113,-44.9932 113,-103.993"/>
<text text-anchor="middle" x="57" y="-87.3932" font-family="Sans" font-size="14.00">Decentralized</text>
<text text-anchor="middle" x="57" y="-70.3932" font-family="Sans" font-size="14.00">Bitcoin</text>
<text text-anchor="middle" x="57" y="-53.3932" font-family="Sans" font-size="14.00">Network</text>
</g>
<!-- bitcoind -->
<g id="node3" class="node"><title>bitcoind</title>
<polygon fill="none" stroke="black" stroke-width="1.75" points="330,-95.4932 250,-95.4932 250,-53.4932 330,-53.4932 330,-95.4932"/>
<text text-anchor="middle" x="290" y="-78.8932" font-family="Sans" font-size="14.00">Local</text>
<text text-anchor="middle" x="290" y="-61.8932" font-family="Sans" font-size="14.00">Full Node</text>
</g>
<!-- p2pnetwork&#45;&gt;bitcoind -->
<g id="edge4" class="edge"><title>p2pnetwork&#45;&gt;bitcoind</title>
<path fill="none" stroke="black" stroke-width="1.75" d="M113.7,-74.4932C152.239,-74.4932 202.757,-74.4932 239.833,-74.4932"/>
<polygon fill="black" stroke="black" points="239.912,-77.9933 249.912,-74.4932 239.912,-70.9933 239.912,-77.9933"/>
<text text-anchor="middle" x="182" y="-78.8932" font-family="Sans" font-size="14.00">Transactions→</text>
</g>
<!-- software -->
<g id="node2" class="node"><title>software</title>
<polygon fill="none" stroke="black" stroke-width="1.75" points="522,-95.4932 442,-95.4932 442,-53.4932 522,-53.4932 522,-95.4932"/>
<text text-anchor="middle" x="482" y="-78.8932" font-family="Sans" font-size="14.00">Mining</text>
<text text-anchor="middle" x="482" y="-61.8932" font-family="Sans" font-size="14.00">Software</text>
</g>
<!-- software&#45;&gt;bitcoind -->
<g id="edge8" class="edge"><title>software&#45;&gt;bitcoind</title>
<path fill="none" stroke="black" stroke-width="1.75" d="M441.857,-53.9254C435.997,-51.6866 429.935,-49.7626 424,-48.4932 390.969,-41.4284 381.031,-41.4284 348,-48.4932 345.218,-49.0882 342.408,-49.8271 339.604,-50.6748"/>
<polygon fill="black" stroke="black" points="338.463,-47.366 330.143,-53.9254 340.737,-53.9862 338.463,-47.366"/>
<text text-anchor="middle" x="386" y="-52.8932" font-family="Sans" font-size="14.00">←Blocks</text>
</g>
<!-- bitcoind&#45;&gt;p2pnetwork -->
<g id="edge6" class="edge"><title>bitcoind&#45;&gt;p2pnetwork</title>
<path fill="none" stroke="black" stroke-width="1.75" d="M249.857,-53.9254C243.997,-51.6866 237.935,-49.7626 232,-48.4932 188.539,-39.1974 175.827,-41.1119 132,-48.4932 129.291,-48.9495 126.548,-49.4924 123.795,-50.1057"/>
<polygon fill="black" stroke="black" points="122.663,-46.7809 113.813,-52.6052 124.364,-53.5712 122.663,-46.7809"/>
<text text-anchor="middle" x="182" y="-52.8932" font-family="Sans" font-size="14.00">←Blocks</text>
</g>
<!-- bitcoind&#45;&gt;software -->
<g id="edge2" class="edge"><title>bitcoind&#45;&gt;software</title>
<path fill="none" stroke="black" stroke-width="1.75" d="M330.249,-74.4932C359.69,-74.4932 399.836,-74.4932 431.441,-74.4932"/>
<polygon fill="black" stroke="black" points="431.804,-77.9933 441.803,-74.4932 431.803,-70.9933 431.804,-77.9933"/>
<text text-anchor="middle" x="386" y="-95.8932" font-family="Sans" font-size="14.00">GetBlock</text>
<text text-anchor="middle" x="386" y="-78.8932" font-family="Sans" font-size="14.00">Template→</text>
</g>
</g>
</svg>
