<?xml version="1.0" encoding="UTF-8" standalone="no"?>
<!DOCTYPE svg PUBLIC "-//W3C//DTD SVG 1.1//EN"
 "http://www.w3.org/Graphics/SVG/1.1/DTD/svg11.dtd">
<!-- Generated by graphviz version 2.26.3 (20100126.1600)
 -->
<!-- Title: _anonymous_0 Pages: 1 -->
<svg width="450pt" height="152pt"
 viewBox="0.00 0.00 450.00 151.98" xmlns="http://www.w3.org/2000/svg" xmlns:xlink="http://www.w3.org/1999/xlink">
<g id="graph1" class="graph" transform="scale(0.849057 0.849057) rotate(0) translate(4 175)">
<title>_anonymous_0</title>
<polygon fill="white" stroke="white" points="-4,5 -4,-175 527,-175 527,5 -4,5"/>
<g id="graph2" class="cluster"><title>cluster_block_chain</title>
<polygon fill="none" stroke="black" stroke-width="0" points="8,-8 8,-80 514,-80 514,-8 8,-8"/>
<text text-anchor="middle" x="261" y="-33.4" font-family="Sans" font-size="14.00">Bitcoin Block Chain (Blocks Every 10 Minutes On Average)</text>
<text text-anchor="middle" x="261" y="-16.4" font-family="Sans" font-size="14.00">Some Blocks Come From P2Pool</text>
</g>
<g id="graph3" class="cluster"><title>cluster_share_chain</title>
<polygon fill="none" stroke="black" stroke-width="0" points="8,-99 8,-163 514,-163 514,-99 8,-99"/>
<text text-anchor="middle" x="261" y="-146.4" font-family="Sans" font-size="14.00">P2Pool Share Chain (Shares Every 30 Seconds On Average)</text>
<text text-anchor="middle" x="261" y="-129.4" font-family="Sans" font-size="14.00">Some Shares Also Valid Blocks</text>
</g>
<!-- invis0 -->
<!-- block1 -->
<g id="node5" class="node"><title>block1</title>
<polygon fill="none" stroke="black" stroke-width="1.75" points="41,-72 27,-72 27,-58 41,-58 41,-72"/>
</g>
<!-- invis0&#45;&gt;block1 -->
<g id="edge3" class="edge"><title>invis0&#45;&gt;block1</title>
<path fill="none" stroke="black" stroke-width="1.75" stroke-dasharray="5,2" d="M17.7305,-65C18.3708,-65 19.389,-65 20.6118,-65"/>
<polygon fill="black" stroke="black" points="20.7412,-67.1001 26.7412,-65 20.7411,-62.9001 20.7412,-67.1001"/>
</g>
<!-- invis1 -->
<!-- block2 -->
<g id="node9" class="node"><title>block2</title>
<polygon fill="none" stroke="black" stroke-width="1.75" points="268,-72 254,-72 254,-58 268,-58 268,-72"/>
</g>
<!-- block1&#45;&gt;block2 -->
<g id="edge7" class="edge"><title>block1&#45;&gt;block2</title>
<path fill="none" stroke="black" stroke-width="1.75" d="M41.0931,-65C48.5412,-65 60.5938,-65 71,-65 71,-65 71,-65 224,-65 231.805,-65 240.535,-65 247.555,-65"/>
<polygon fill="black" stroke="black" points="247.907,-67.1001 253.907,-65 247.907,-62.9001 247.907,-67.1001"/>
</g>
<!-- block3 -->
<g id="node6" class="node"><title>block3</title>
<polygon fill="none" stroke="black" stroke-width="1.75" points="495,-72 481,-72 481,-58 495,-58 495,-72"/>
</g>
<!-- block3&#45;&gt;invis1 -->
<g id="edge5" class="edge"><title>block3&#45;&gt;invis1</title>
<path fill="none" stroke="black" stroke-width="1.75" stroke-dasharray="5,2" d="M495.308,-65C496.172,-65 497.053,-65 497.914,-65"/>
<polygon fill="black" stroke="black" points="498.134,-67.1001 504.134,-65 498.134,-62.9001 498.134,-67.1001"/>
</g>
<!-- block2&#45;&gt;block3 -->
<g id="edge8" class="edge"><title>block2&#45;&gt;block3</title>
<path fill="none" stroke="black" stroke-width="1.75" d="M268.093,-65C275.541,-65 287.594,-65 298,-65 298,-65 298,-65 451,-65 458.805,-65 467.535,-65 474.555,-65"/>
<polygon fill="black" stroke="black" points="474.907,-67.1001 480.907,-65 474.907,-62.9001 474.907,-67.1001"/>
</g>
<!-- invis2 -->
<!-- share0 -->
<g id="node14" class="node"><title>share0</title>
<polygon fill="none" stroke="black" stroke-width="1.75" points="37,-113.5 31,-113.5 31,-106.5 37,-106.5 37,-113.5"/>
</g>
<!-- invis2&#45;&gt;share0 -->
<g id="edge11" class="edge"><title>invis2&#45;&gt;share0</title>
<path fill="none" stroke="black" stroke-width="1.75" stroke-dasharray="5,2" d="M17.7305,-110C18.9316,-110 21.4629,-110 24.1787,-110"/>
<polygon fill="black" stroke="black" points="24.3113,-112.1 30.3113,-110 24.3112,-107.9 24.3113,-112.1"/>
</g>
<!-- invis3 -->
<!-- share1 -->
<g id="node18" class="node"><title>share1</title>
<polygon fill="none" stroke="black" stroke-width="1.75" points="57,-113.5 51,-113.5 51,-106.5 57,-106.5 57,-113.5"/>
</g>
<!-- share0&#45;&gt;share1 -->
<g id="edge15" class="edge"><title>share0&#45;&gt;share1</title>
<path fill="none" stroke="black" stroke-width="1.75" d="M37.8562,-110C39.6724,-110 41.93,-110 44.1758,-110"/>
<polygon fill="black" stroke="black" points="44.4244,-112.1 50.4244,-110 44.4244,-107.9 44.4244,-112.1"/>
</g>
<!-- share26 -->
<g id="node15" class="node"><title>share26</title>
<polygon fill="none" stroke="black" stroke-width="1.75" points="491,-113.5 485,-113.5 485,-106.5 491,-106.5 491,-113.5"/>
</g>
<!-- share26&#45;&gt;invis3 -->
<g id="edge13" class="edge"><title>share26&#45;&gt;invis3</title>
<path fill="none" stroke="black" stroke-width="1.75" stroke-dasharray="5,2" d="M491.605,-110C493.506,-110 495.902,-110 498.14,-110"/>
<polygon fill="black" stroke="black" points="498.192,-112.1 504.191,-110 498.191,-107.9 498.192,-112.1"/>
</g>
<!-- share2 -->
<g id="node19" class="node"><title>share2</title>
<polygon fill="none" stroke="black" stroke-width="1.75" points="74,-113.5 68,-113.5 68,-106.5 74,-106.5 74,-113.5"/>
</g>
<!-- share1&#45;&gt;share2 -->
<g id="edge16" class="edge"><title>share1&#45;&gt;share2</title>
<path fill="none" stroke="black" stroke-width="1.75" d="M57.6053,-110C58.6579,-110 59.8624,-110 61.108,-110"/>
<polygon fill="black" stroke="black" points="61.1637,-112.1 67.1637,-110 61.1636,-107.9 61.1637,-112.1"/>
</g>
<!-- share3 -->
<g id="node20" class="node"><title>share3</title>
<polygon fill="none" stroke="black" stroke-width="1.75" points="91,-113.5 85,-113.5 85,-106.5 91,-106.5 91,-113.5"/>
</g>
<!-- share2&#45;&gt;share3 -->
<g id="edge17" class="edge"><title>share2&#45;&gt;share3</title>
<path fill="none" stroke="black" stroke-width="1.75" d="M74.6053,-110C75.6579,-110 76.8624,-110 78.108,-110"/>
<polygon fill="black" stroke="black" points="78.1637,-112.1 84.1637,-110 78.1636,-107.9 78.1637,-112.1"/>
</g>
<!-- share4 -->
<g id="node21" class="node"><title>share4</title>
<polygon fill="none" stroke="black" stroke-width="1.75" points="108,-113.5 102,-113.5 102,-106.5 108,-106.5 108,-113.5"/>
</g>
<!-- share3&#45;&gt;share4 -->
<g id="edge18" class="edge"><title>share3&#45;&gt;share4</title>
<path fill="none" stroke="black" stroke-width="1.75" d="M91.6053,-110C92.6579,-110 93.8624,-110 95.108,-110"/>
<polygon fill="black" stroke="black" points="95.1637,-112.1 101.164,-110 95.1636,-107.9 95.1637,-112.1"/>
</g>
<!-- share5 -->
<g id="node22" class="node"><title>share5</title>
<polygon fill="none" stroke="black" stroke-width="1.75" points="125,-113.5 119,-113.5 119,-106.5 125,-106.5 125,-113.5"/>
</g>
<!-- share4&#45;&gt;share5 -->
<g id="edge19" class="edge"><title>share4&#45;&gt;share5</title>
<path fill="none" stroke="black" stroke-width="1.75" d="M108.605,-110C109.658,-110 110.862,-110 112.108,-110"/>
<polygon fill="black" stroke="black" points="112.164,-112.1 118.164,-110 112.164,-107.9 112.164,-112.1"/>
</g>
<!-- share6 -->
<g id="node23" class="node"><title>share6</title>
<polygon fill="none" stroke="black" stroke-width="1.75" points="142,-113.5 136,-113.5 136,-106.5 142,-106.5 142,-113.5"/>
</g>
<!-- share5&#45;&gt;share6 -->
<g id="edge20" class="edge"><title>share5&#45;&gt;share6</title>
<path fill="none" stroke="black" stroke-width="1.75" d="M125.605,-110C126.658,-110 127.862,-110 129.108,-110"/>
<polygon fill="black" stroke="black" points="129.164,-112.1 135.164,-110 129.164,-107.9 129.164,-112.1"/>
</g>
<!-- share7 -->
<g id="node24" class="node"><title>share7</title>
<polygon fill="none" stroke="black" stroke-width="1.75" points="159,-113.5 153,-113.5 153,-106.5 159,-106.5 159,-113.5"/>
</g>
<!-- share6&#45;&gt;share7 -->
<g id="edge21" class="edge"><title>share6&#45;&gt;share7</title>
<path fill="none" stroke="black" stroke-width="1.75" d="M142.605,-110C143.658,-110 144.862,-110 146.108,-110"/>
<polygon fill="black" stroke="black" points="146.164,-112.1 152.164,-110 146.164,-107.9 146.164,-112.1"/>
</g>
<!-- share8 -->
<g id="node25" class="node"><title>share8</title>
<polygon fill="none" stroke="black" stroke-width="1.75" points="176,-113.5 170,-113.5 170,-106.5 176,-106.5 176,-113.5"/>
</g>
<!-- share7&#45;&gt;share8 -->
<g id="edge22" class="edge"><title>share7&#45;&gt;share8</title>
<path fill="none" stroke="black" stroke-width="1.75" d="M159.605,-110C160.658,-110 161.862,-110 163.108,-110"/>
<polygon fill="black" stroke="black" points="163.164,-112.1 169.164,-110 163.164,-107.9 163.164,-112.1"/>
</g>
<!-- share9 -->
<g id="node26" class="node"><title>share9</title>
<polygon fill="none" stroke="black" stroke-width="1.75" points="193,-113.5 187,-113.5 187,-106.5 193,-106.5 193,-113.5"/>
</g>
<!-- share8&#45;&gt;share9 -->
<g id="edge23" class="edge"><title>share8&#45;&gt;share9</title>
<path fill="none" stroke="black" stroke-width="1.75" d="M176.605,-110C177.658,-110 178.862,-110 180.108,-110"/>
<polygon fill="black" stroke="black" points="180.164,-112.1 186.164,-110 180.164,-107.9 180.164,-112.1"/>
</g>
<!-- share10 -->
<g id="node27" class="node"><title>share10</title>
<polygon fill="none" stroke="black" stroke-width="1.75" points="210,-113.5 204,-113.5 204,-106.5 210,-106.5 210,-113.5"/>
</g>
<!-- share9&#45;&gt;share10 -->
<g id="edge24" class="edge"><title>share9&#45;&gt;share10</title>
<path fill="none" stroke="black" stroke-width="1.75" d="M193.605,-110C194.658,-110 195.862,-110 197.108,-110"/>
<polygon fill="black" stroke="black" points="197.164,-112.1 203.164,-110 197.164,-107.9 197.164,-112.1"/>
</g>
<!-- share11 -->
<g id="node29" class="node"><title>share11</title>
<polygon fill="none" stroke="black" stroke-width="1.75" points="227,-113.5 221,-113.5 221,-106.5 227,-106.5 227,-113.5"/>
</g>
<!-- share10&#45;&gt;share11 -->
<g id="edge26" class="edge"><title>share10&#45;&gt;share11</title>
<path fill="none" stroke="black" stroke-width="1.75" d="M210.605,-110C211.658,-110 212.862,-110 214.108,-110"/>
<polygon fill="black" stroke="black" points="214.164,-112.1 220.164,-110 214.164,-107.9 214.164,-112.1"/>
</g>
<!-- share12 -->
<g id="node30" class="node"><title>share12</title>
<polygon fill="none" stroke="black" stroke-width="1.75" points="244,-113.5 238,-113.5 238,-106.5 244,-106.5 244,-113.5"/>
</g>
<!-- share11&#45;&gt;share12 -->
<g id="edge27" class="edge"><title>share11&#45;&gt;share12</title>
<path fill="none" stroke="black" stroke-width="1.75" d="M227.605,-110C228.658,-110 229.862,-110 231.108,-110"/>
<polygon fill="black" stroke="black" points="231.164,-112.1 237.164,-110 231.164,-107.9 231.164,-112.1"/>
</g>
<!-- share13 -->
<g id="node31" class="node"><title>share13</title>
<polygon fill="none" stroke="black" stroke-width="1.75" points="264,-113.5 258,-113.5 258,-106.5 264,-106.5 264,-113.5"/>
</g>
<!-- share12&#45;&gt;share13 -->
<g id="edge28" class="edge"><title>share12&#45;&gt;share13</title>
<path fill="none" stroke="black" stroke-width="1.75" d="M244.856,-110C246.672,-110 248.93,-110 251.176,-110"/>
<polygon fill="black" stroke="black" points="251.424,-112.1 257.424,-110 251.424,-107.9 251.424,-112.1"/>
</g>
<!-- share13&#45;&gt;block2 -->
<g id="edge44" class="edge"><title>share13&#45;&gt;block2</title>
<path fill="none" stroke="black" stroke-width="1.75" d="M261,-106.737C261,-98.5125 261,-90.288 261,-82.0634"/>
<polygon fill="black" stroke="black" points="264.5,-82.0312 261,-72.0312 257.5,-82.0313 264.5,-82.0312"/>
</g>
<!-- share14 -->
<g id="node32" class="node"><title>share14</title>
<polygon fill="none" stroke="black" stroke-width="1.75" points="284,-113.5 278,-113.5 278,-106.5 284,-106.5 284,-113.5"/>
</g>
<!-- share13&#45;&gt;share14 -->
<g id="edge29" class="edge"><title>share13&#45;&gt;share14</title>
<path fill="none" stroke="black" stroke-width="1.75" d="M264.856,-110C266.672,-110 268.93,-110 271.176,-110"/>
<polygon fill="black" stroke="black" points="271.424,-112.1 277.424,-110 271.424,-107.9 271.424,-112.1"/>
</g>
<!-- share15 -->
<g id="node33" class="node"><title>share15</title>
<polygon fill="none" stroke="black" stroke-width="1.75" points="301,-113.5 295,-113.5 295,-106.5 301,-106.5 301,-113.5"/>
</g>
<!-- share14&#45;&gt;share15 -->
<g id="edge30" class="edge"><title>share14&#45;&gt;share15</title>
<path fill="none" stroke="black" stroke-width="1.75" d="M284.605,-110C285.658,-110 286.862,-110 288.108,-110"/>
<polygon fill="black" stroke="black" points="288.164,-112.1 294.164,-110 288.164,-107.9 288.164,-112.1"/>
</g>
<!-- share16 -->
<g id="node34" class="node"><title>share16</title>
<polygon fill="none" stroke="black" stroke-width="1.75" points="318,-113.5 312,-113.5 312,-106.5 318,-106.5 318,-113.5"/>
</g>
<!-- share15&#45;&gt;share16 -->
<g id="edge31" class="edge"><title>share15&#45;&gt;share16</title>
<path fill="none" stroke="black" stroke-width="1.75" d="M301.605,-110C302.658,-110 303.862,-110 305.108,-110"/>
<polygon fill="black" stroke="black" points="305.164,-112.1 311.164,-110 305.164,-107.9 305.164,-112.1"/>
</g>
<!-- share17 -->
<g id="node35" class="node"><title>share17</title>
<polygon fill="none" stroke="black" stroke-width="1.75" points="335,-113.5 329,-113.5 329,-106.5 335,-106.5 335,-113.5"/>
</g>
<!-- share16&#45;&gt;share17 -->
<g id="edge32" class="edge"><title>share16&#45;&gt;share17</title>
<path fill="none" stroke="black" stroke-width="1.75" d="M318.605,-110C319.658,-110 320.862,-110 322.108,-110"/>
<polygon fill="black" stroke="black" points="322.164,-112.1 328.164,-110 322.164,-107.9 322.164,-112.1"/>
</g>
<!-- share18 -->
<g id="node36" class="node"><title>share18</title>
<polygon fill="none" stroke="black" stroke-width="1.75" points="352,-113.5 346,-113.5 346,-106.5 352,-106.5 352,-113.5"/>
</g>
<!-- share17&#45;&gt;share18 -->
<g id="edge33" class="edge"><title>share17&#45;&gt;share18</title>
<path fill="none" stroke="black" stroke-width="1.75" d="M335.605,-110C336.658,-110 337.862,-110 339.108,-110"/>
<polygon fill="black" stroke="black" points="339.164,-112.1 345.164,-110 339.164,-107.9 339.164,-112.1"/>
</g>
<!-- share19 -->
<g id="node37" class="node"><title>share19</title>
<polygon fill="none" stroke="black" stroke-width="1.75" points="369,-113.5 363,-113.5 363,-106.5 369,-106.5 369,-113.5"/>
</g>
<!-- share18&#45;&gt;share19 -->
<g id="edge34" class="edge"><title>share18&#45;&gt;share19</title>
<path fill="none" stroke="black" stroke-width="1.75" d="M352.605,-110C353.658,-110 354.862,-110 356.108,-110"/>
<polygon fill="black" stroke="black" points="356.164,-112.1 362.164,-110 356.164,-107.9 356.164,-112.1"/>
</g>
<!-- share20 -->
<g id="node38" class="node"><title>share20</title>
<polygon fill="none" stroke="black" stroke-width="1.75" points="386,-113.5 380,-113.5 380,-106.5 386,-106.5 386,-113.5"/>
</g>
<!-- share19&#45;&gt;share20 -->
<g id="edge35" class="edge"><title>share19&#45;&gt;share20</title>
<path fill="none" stroke="black" stroke-width="1.75" d="M369.605,-110C370.658,-110 371.862,-110 373.108,-110"/>
<polygon fill="black" stroke="black" points="373.164,-112.1 379.164,-110 373.164,-107.9 373.164,-112.1"/>
</g>
<!-- share21 -->
<g id="node40" class="node"><title>share21</title>
<polygon fill="none" stroke="black" stroke-width="1.75" points="403,-113.5 397,-113.5 397,-106.5 403,-106.5 403,-113.5"/>
</g>
<!-- share20&#45;&gt;share21 -->
<g id="edge37" class="edge"><title>share20&#45;&gt;share21</title>
<path fill="none" stroke="black" stroke-width="1.75" d="M386.605,-110C387.658,-110 388.862,-110 390.108,-110"/>
<polygon fill="black" stroke="black" points="390.164,-112.1 396.164,-110 390.164,-107.9 390.164,-112.1"/>
</g>
<!-- share22 -->
<g id="node41" class="node"><title>share22</title>
<polygon fill="none" stroke="black" stroke-width="1.75" points="420,-113.5 414,-113.5 414,-106.5 420,-106.5 420,-113.5"/>
</g>
<!-- share21&#45;&gt;share22 -->
<g id="edge38" class="edge"><title>share21&#45;&gt;share22</title>
<path fill="none" stroke="black" stroke-width="1.75" d="M403.605,-110C404.658,-110 405.862,-110 407.108,-110"/>
<polygon fill="black" stroke="black" points="407.164,-112.1 413.164,-110 407.164,-107.9 407.164,-112.1"/>
</g>
<!-- share23 -->
<g id="node42" class="node"><title>share23</title>
<polygon fill="none" stroke="black" stroke-width="1.75" points="437,-113.5 431,-113.5 431,-106.5 437,-106.5 437,-113.5"/>
</g>
<!-- share22&#45;&gt;share23 -->
<g id="edge39" class="edge"><title>share22&#45;&gt;share23</title>
<path fill="none" stroke="black" stroke-width="1.75" d="M420.605,-110C421.658,-110 422.862,-110 424.108,-110"/>
<polygon fill="black" stroke="black" points="424.164,-112.1 430.164,-110 424.164,-107.9 424.164,-112.1"/>
</g>
<!-- share24 -->
<g id="node43" class="node"><title>share24</title>
<polygon fill="none" stroke="black" stroke-width="1.75" points="454,-113.5 448,-113.5 448,-106.5 454,-106.5 454,-113.5"/>
</g>
<!-- share23&#45;&gt;share24 -->
<g id="edge40" class="edge"><title>share23&#45;&gt;share24</title>
<path fill="none" stroke="black" stroke-width="1.75" d="M437.605,-110C438.658,-110 439.862,-110 441.108,-110"/>
<polygon fill="black" stroke="black" points="441.164,-112.1 447.164,-110 441.164,-107.9 441.164,-112.1"/>
</g>
<!-- share25 -->
<g id="node44" class="node"><title>share25</title>
<polygon fill="none" stroke="black" stroke-width="1.75" points="471,-113.5 465,-113.5 465,-106.5 471,-106.5 471,-113.5"/>
</g>
<!-- share24&#45;&gt;share25 -->
<g id="edge41" class="edge"><title>share24&#45;&gt;share25</title>
<path fill="none" stroke="black" stroke-width="1.75" d="M454.605,-110C455.658,-110 456.862,-110 458.108,-110"/>
<polygon fill="black" stroke="black" points="458.164,-112.1 464.164,-110 458.164,-107.9 458.164,-112.1"/>
</g>
<!-- share25&#45;&gt;share26 -->
<g id="edge42" class="edge"><title>share25&#45;&gt;share26</title>
<path fill="none" stroke="black" stroke-width="1.75" d="M471.856,-110C473.672,-110 475.93,-110 478.176,-110"/>
<polygon fill="black" stroke="black" points="478.424,-112.1 484.424,-110 478.424,-107.9 478.424,-112.1"/>
</g>
</g>
</svg>
