<?xml version="1.0" encoding="UTF-8" standalone="no"?>
<!DOCTYPE svg PUBLIC "-//W3C//DTD SVG 1.1//EN"
 "http://www.w3.org/Graphics/SVG/1.1/DTD/svg11.dtd">
<!-- Generated by graphviz version 2.26.3 (20100126.1600)
 -->
<!-- Title: _anonymous_0 Pages: 1 -->
<svg width="450pt" height="66pt"
 viewBox="0.00 0.00 450.00 66.24" xmlns="http://www.w3.org/2000/svg" xmlns:xlink="http://www.w3.org/1999/xlink">
<g id="graph1" class="graph" transform="scale(0.72 0.72) rotate(0) translate(4 88)">
<title>_anonymous_0</title>
<polygon fill="white" stroke="white" points="-4,5 -4,-88 622,-88 622,5 -4,5"/>
<text text-anchor="middle" x="308.5" y="-25.4" font-family="Sans" font-size="14.00"> </text>
<text text-anchor="middle" x="308.5" y="-8.4" font-family="Sans" font-size="14.00">Tickets Must Include The Winning Hash Number Of A Ticket From The Previous Lottery</text>
<!-- invis0 -->
<g id="node1" class="node"><title>invis0</title>
<text text-anchor="middle" x="78.5" y="-67.4" font-family="Sans" font-size="14.00">←Previous Hash</text>
<text text-anchor="middle" x="78.5" y="-50.4" font-family="Sans" font-size="14.00">Winning Hash→</text>
</g>
<!-- block0 -->
<g id="node2" class="node"><title>block0</title>
<polygon fill="none" stroke="black" stroke-width="1.75" points="231.5,-84 173.5,-84 173.5,-42 231.5,-42 231.5,-84"/>
<text text-anchor="middle" x="202.5" y="-67.4" font-family="Sans" font-size="14.00">←#47</text>
<text text-anchor="middle" x="202.5" y="-50.4" font-family="Sans" font-size="14.00">#16→</text>
</g>
<!-- invis0&#45;&gt;block0 -->
<g id="edge2" class="edge"><title>invis0&#45;&gt;block0</title>
<path fill="none" stroke="black" stroke-width="1.75" stroke-dasharray="5,2" d="M142.316,-63C149.159,-63 155.972,-63 162.422,-63"/>
<polygon fill="black" stroke="black" points="162.875,-66.5001 172.875,-63 162.875,-59.5001 162.875,-66.5001"/>
</g>
<!-- block1 -->
<g id="node3" class="node"><title>block1</title>
<polygon fill="none" stroke="black" stroke-width="1.75" points="305.5,-84 247.5,-84 247.5,-42 305.5,-42 305.5,-84"/>
<text text-anchor="middle" x="276.5" y="-67.4" font-family="Sans" font-size="14.00">←#16</text>
<text text-anchor="middle" x="276.5" y="-50.4" font-family="Sans" font-size="14.00">#90→</text>
</g>
<!-- block0&#45;&gt;block1 -->
<g id="edge4" class="edge"><title>block0&#45;&gt;block1</title>
<path fill="none" stroke="black" stroke-width="1.75" d="M232.172,-63C233.68,-63 235.205,-63 236.736,-63"/>
<polygon fill="black" stroke="black" points="236.821,-66.5001 246.821,-63 236.821,-59.5001 236.821,-66.5001"/>
</g>
<!-- block2 -->
<g id="node4" class="node"><title>block2</title>
<polygon fill="none" stroke="black" stroke-width="1.75" points="379.5,-84 321.5,-84 321.5,-42 379.5,-42 379.5,-84"/>
<text text-anchor="middle" x="350.5" y="-67.4" font-family="Sans" font-size="14.00">←#90</text>
<text text-anchor="middle" x="350.5" y="-50.4" font-family="Sans" font-size="14.00">#19→</text>
</g>
<!-- block1&#45;&gt;block2 -->
<g id="edge5" class="edge"><title>block1&#45;&gt;block2</title>
<path fill="none" stroke="black" stroke-width="1.75" d="M306.172,-63C307.68,-63 309.205,-63 310.736,-63"/>
<polygon fill="black" stroke="black" points="310.821,-66.5001 320.821,-63 310.821,-59.5001 310.821,-66.5001"/>
</g>
<!-- block3 -->
<g id="node5" class="node"><title>block3</title>
<polygon fill="none" stroke="black" stroke-width="1.75" points="453.5,-84 395.5,-84 395.5,-42 453.5,-42 453.5,-84"/>
<text text-anchor="middle" x="424.5" y="-67.4" font-family="Sans" font-size="14.00">←#19</text>
<text text-anchor="middle" x="424.5" y="-50.4" font-family="Sans" font-size="14.00">#47→</text>
</g>
<!-- block2&#45;&gt;block3 -->
<g id="edge6" class="edge"><title>block2&#45;&gt;block3</title>
<path fill="none" stroke="black" stroke-width="1.75" d="M380.172,-63C381.68,-63 383.205,-63 384.736,-63"/>
<polygon fill="black" stroke="black" points="384.821,-66.5001 394.821,-63 384.821,-59.5001 384.821,-66.5001"/>
</g>
<!-- block4 -->
<g id="node6" class="node"><title>block4</title>
<polygon fill="none" stroke="black" stroke-width="1.75" points="527.5,-84 469.5,-84 469.5,-42 527.5,-42 527.5,-84"/>
<text text-anchor="middle" x="498.5" y="-67.4" font-family="Sans" font-size="14.00">←#47</text>
<text text-anchor="middle" x="498.5" y="-50.4" font-family="Sans" font-size="14.00">#88→</text>
</g>
<!-- block3&#45;&gt;block4 -->
<g id="edge7" class="edge"><title>block3&#45;&gt;block4</title>
<path fill="none" stroke="black" stroke-width="1.75" d="M454.172,-63C455.68,-63 457.205,-63 458.736,-63"/>
<polygon fill="black" stroke="black" points="458.821,-66.5001 468.821,-63 458.821,-59.5001 458.821,-66.5001"/>
</g>
<!-- block5 -->
<g id="node7" class="node"><title>block5</title>
<polygon fill="none" stroke="black" stroke-width="1.75" points="601.5,-84 543.5,-84 543.5,-42 601.5,-42 601.5,-84"/>
<text text-anchor="middle" x="572.5" y="-67.4" font-family="Sans" font-size="14.00">←#88</text>
<text text-anchor="middle" x="572.5" y="-50.4" font-family="Sans" font-size="14.00">#3→</text>
</g>
<!-- block4&#45;&gt;block5 -->
<g id="edge8" class="edge"><title>block4&#45;&gt;block5</title>
<path fill="none" stroke="black" stroke-width="1.75" d="M528.172,-63C529.68,-63 531.205,-63 532.736,-63"/>
<polygon fill="black" stroke="black" points="532.821,-66.5001 542.821,-63 532.821,-59.5001 532.821,-66.5001"/>
</g>
</g>
</svg>
