<?xml version="1.0" encoding="UTF-8" standalone="no"?>
<!DOCTYPE svg PUBLIC "-//W3C//DTD SVG 1.1//EN"
 "http://www.w3.org/Graphics/SVG/1.1/DTD/svg11.dtd">
<!-- Generated by graphviz version 2.26.3 (20100126.1600)
 -->
<!-- Title: _anonymous_0 Pages: 1 -->
<svg width="450pt" height="148pt"
 viewBox="0.00 0.00 450.00 148.39" xmlns="http://www.w3.org/2000/svg" xmlns:xlink="http://www.w3.org/1999/xlink">
<g id="graph1" class="graph" transform="scale(0.806452 0.806452) rotate(0) translate(4 180)">
<title>_anonymous_0</title>
<polygon fill="white" stroke="white" points="-4,5 -4,-180 555,-180 555,5 -4,5"/>
<text text-anchor="middle" x="275" y="-25.4" font-family="Sans" font-size="14.00"> </text>
<text text-anchor="middle" x="275" y="-8.4" font-family="Sans" font-size="14.00">Checking Random Hash Numbers From Many Different Tickets Requires Work</text>
<!-- ticket -->
<g id="node1" class="node"><title>ticket</title>
<text text-anchor="middle" x="93.5" y="-158.9" font-family="Sans" font-size="14.00">Tickets With</text>
<text text-anchor="middle" x="93.5" y="-141.9" font-family="Sans" font-size="14.00">Signed Promises</text>
<text text-anchor="middle" x="93.5" y="-124.9" font-family="Sans" font-size="14.00">&amp; Other Data</text>
</g>
<!-- hash -->
<g id="node2" class="node"><title>hash</title>
<text text-anchor="middle" x="93.5" y="-84.9" font-family="Sans" font-size="14.00">Random Hash Number;</text>
<text text-anchor="middle" x="93.5" y="-67.9" font-family="Sans" font-size="14.00">Must Be Below Target</text>
<text text-anchor="middle" x="93.5" y="-50.9" font-family="Sans" font-size="14.00">Number To Win</text>
</g>
<!-- ticket&#45;&gt;hash -->
<!-- hash0001 -->
<g id="node3" class="node"><title>hash0001</title>
<text text-anchor="middle" x="198.5" y="-66.8" font-family="Sans" font-size="18.00">#</text>
</g>
<!-- hash0002 -->
<g id="node4" class="node"><title>hash0002</title>
<text text-anchor="middle" x="231.5" y="-66.8" font-family="Sans" font-size="18.00">#</text>
</g>
<!-- hash0003 -->
<g id="node5" class="node"><title>hash0003</title>
<text text-anchor="middle" x="264.5" y="-66.8" font-family="Sans" font-size="18.00">#</text>
</g>
<!-- hash0730 -->
<g id="node6" class="node"><title>hash0730</title>
<text text-anchor="middle" x="297.5" y="-66.8" font-family="Sans" font-size="18.00">#</text>
</g>
<!-- hash0731 -->
<g id="node7" class="node"><title>hash0731</title>
<text text-anchor="middle" x="330.5" y="-66.8" font-family="Sans" font-size="18.00">#</text>
</g>
<!-- hash0732 -->
<g id="node8" class="node"><title>hash0732</title>
<text text-anchor="middle" x="363.5" y="-66.8" font-family="Sans" font-size="18.00">#</text>
</g>
<!-- hash0733 -->
<g id="node9" class="node"><title>hash0733</title>
<text text-anchor="middle" x="396.5" y="-66.8" font-family="Sans" font-size="18.00">#</text>
</g>
<!-- hash0734 -->
<g id="node10" class="node"><title>hash0734</title>
<text text-anchor="middle" x="429.5" y="-66.8" font-family="Sans" font-size="18.00">#</text>
</g>
<!-- hash0735 -->
<g id="node11" class="node"><title>hash0735</title>
<text text-anchor="middle" x="462.5" y="-66.8" font-family="Sans" font-size="18.00">#</text>
</g>
<!-- hash0736 -->
<g id="node12" class="node"><title>hash0736</title>
<text text-anchor="middle" x="495.5" y="-66.8" font-family="Sans" font-size="18.00">#</text>
</g>
<!-- hash0737 -->
<g id="node13" class="node"><title>hash0737</title>
<text text-anchor="middle" x="528.5" y="-66.8" font-family="Sans" font-size="18.00">#</text>
</g>
<!-- ticket0001 -->
<g id="node15" class="node"><title>ticket0001</title>
<polygon fill="none" stroke="black" stroke-width="1.75" points="209.5,-157 187.5,-157 187.5,-135 209.5,-135 209.5,-157"/>
</g>
<!-- ticket0001&#45;&gt;hash0001 -->
<g id="edge4" class="edge"><title>ticket0001&#45;&gt;hash0001</title>
<path fill="none" stroke="black" stroke-width="1.75" d="M198.5,-134.761C198.5,-124.842 198.5,-110.021 198.5,-97.2715"/>
<polygon fill="black" stroke="black" points="202,-97.2025 198.5,-87.2025 195,-97.2026 202,-97.2025"/>
</g>
<!-- ticket0002 -->
<g id="node17" class="node"><title>ticket0002</title>
<polygon fill="none" stroke="black" stroke-width="1.75" points="242.5,-157 220.5,-157 220.5,-135 242.5,-135 242.5,-157"/>
</g>
<!-- ticket0002&#45;&gt;hash0002 -->
<g id="edge6" class="edge"><title>ticket0002&#45;&gt;hash0002</title>
<path fill="none" stroke="black" stroke-width="1.75" d="M231.5,-134.761C231.5,-124.842 231.5,-110.021 231.5,-97.2715"/>
<polygon fill="black" stroke="black" points="235,-97.2025 231.5,-87.2025 228,-97.2026 235,-97.2025"/>
</g>
<!-- ticket0003 -->
<g id="node19" class="node"><title>ticket0003</title>
<polygon fill="none" stroke="black" stroke-width="1.75" points="275.5,-157 253.5,-157 253.5,-135 275.5,-135 275.5,-157"/>
</g>
<!-- ticket0003&#45;&gt;hash0003 -->
<g id="edge8" class="edge"><title>ticket0003&#45;&gt;hash0003</title>
<path fill="none" stroke="black" stroke-width="1.75" d="M264.5,-134.761C264.5,-124.842 264.5,-110.021 264.5,-97.2715"/>
<polygon fill="black" stroke="black" points="268,-97.2025 264.5,-87.2025 261,-97.2026 268,-97.2025"/>
</g>
<!-- ticket730 -->
<g id="node21" class="node"><title>ticket730</title>
<polygon fill="none" stroke="black" stroke-width="1.75" points="308.5,-157 286.5,-157 286.5,-135 308.5,-135 308.5,-157"/>
</g>
<!-- ticket730&#45;&gt;hash0730 -->
<g id="edge10" class="edge"><title>ticket730&#45;&gt;hash0730</title>
<path fill="none" stroke="black" stroke-width="1.75" d="M297.5,-134.761C297.5,-124.842 297.5,-110.021 297.5,-97.2715"/>
<polygon fill="black" stroke="black" points="301,-97.2025 297.5,-87.2025 294,-97.2026 301,-97.2025"/>
</g>
<!-- ticket731 -->
<g id="node23" class="node"><title>ticket731</title>
<polygon fill="none" stroke="black" stroke-width="1.75" points="341.5,-157 319.5,-157 319.5,-135 341.5,-135 341.5,-157"/>
</g>
<!-- ticket731&#45;&gt;hash0731 -->
<g id="edge12" class="edge"><title>ticket731&#45;&gt;hash0731</title>
<path fill="none" stroke="black" stroke-width="1.75" d="M330.5,-134.761C330.5,-124.842 330.5,-110.021 330.5,-97.2715"/>
<polygon fill="black" stroke="black" points="334,-97.2025 330.5,-87.2025 327,-97.2026 334,-97.2025"/>
</g>
<!-- ticket732 -->
<g id="node25" class="node"><title>ticket732</title>
<polygon fill="none" stroke="black" stroke-width="1.75" points="374.5,-157 352.5,-157 352.5,-135 374.5,-135 374.5,-157"/>
</g>
<!-- ticket732&#45;&gt;hash0732 -->
<g id="edge14" class="edge"><title>ticket732&#45;&gt;hash0732</title>
<path fill="none" stroke="black" stroke-width="1.75" d="M363.5,-134.761C363.5,-124.842 363.5,-110.021 363.5,-97.2715"/>
<polygon fill="black" stroke="black" points="367,-97.2025 363.5,-87.2025 360,-97.2026 367,-97.2025"/>
</g>
<!-- ticket733 -->
<g id="node27" class="node"><title>ticket733</title>
<polygon fill="none" stroke="black" stroke-width="1.75" points="407.5,-157 385.5,-157 385.5,-135 407.5,-135 407.5,-157"/>
</g>
<!-- ticket733&#45;&gt;hash0733 -->
<g id="edge16" class="edge"><title>ticket733&#45;&gt;hash0733</title>
<path fill="none" stroke="black" stroke-width="1.75" d="M396.5,-134.761C396.5,-124.842 396.5,-110.021 396.5,-97.2715"/>
<polygon fill="black" stroke="black" points="400,-97.2025 396.5,-87.2025 393,-97.2026 400,-97.2025"/>
</g>
<!-- ticket734 -->
<g id="node29" class="node"><title>ticket734</title>
<polygon fill="none" stroke="black" stroke-width="1.75" points="440.5,-157 418.5,-157 418.5,-135 440.5,-135 440.5,-157"/>
</g>
<!-- ticket734&#45;&gt;hash0734 -->
<g id="edge18" class="edge"><title>ticket734&#45;&gt;hash0734</title>
<path fill="none" stroke="black" stroke-width="1.75" d="M429.5,-134.761C429.5,-124.842 429.5,-110.021 429.5,-97.2715"/>
<polygon fill="black" stroke="black" points="433,-97.2025 429.5,-87.2025 426,-97.2026 433,-97.2025"/>
</g>
<!-- ticket735 -->
<g id="node31" class="node"><title>ticket735</title>
<polygon fill="none" stroke="black" stroke-width="1.75" points="473.5,-157 451.5,-157 451.5,-135 473.5,-135 473.5,-157"/>
</g>
<!-- ticket735&#45;&gt;hash0735 -->
<g id="edge20" class="edge"><title>ticket735&#45;&gt;hash0735</title>
<path fill="none" stroke="black" stroke-width="1.75" d="M462.5,-134.761C462.5,-124.842 462.5,-110.021 462.5,-97.2715"/>
<polygon fill="black" stroke="black" points="466,-97.2025 462.5,-87.2025 459,-97.2026 466,-97.2025"/>
</g>
<!-- ticket736 -->
<g id="node33" class="node"><title>ticket736</title>
<polygon fill="none" stroke="black" stroke-width="1.75" points="506.5,-157 484.5,-157 484.5,-135 506.5,-135 506.5,-157"/>
</g>
<!-- ticket736&#45;&gt;hash0736 -->
<g id="edge22" class="edge"><title>ticket736&#45;&gt;hash0736</title>
<path fill="none" stroke="black" stroke-width="1.75" d="M495.5,-134.761C495.5,-124.842 495.5,-110.021 495.5,-97.2715"/>
<polygon fill="black" stroke="black" points="499,-97.2025 495.5,-87.2025 492,-97.2026 499,-97.2025"/>
</g>
<!-- ticket737 -->
<g id="node35" class="node"><title>ticket737</title>
<polygon fill="none" stroke="black" stroke-width="1.75" points="539.5,-157 517.5,-157 517.5,-135 539.5,-135 539.5,-157"/>
</g>
<!-- ticket737&#45;&gt;hash0737 -->
<g id="edge24" class="edge"><title>ticket737&#45;&gt;hash0737</title>
<path fill="none" stroke="black" stroke-width="1.75" d="M528.5,-134.761C528.5,-124.842 528.5,-110.021 528.5,-97.2715"/>
<polygon fill="black" stroke="black" points="532,-97.2025 528.5,-87.2025 525,-97.2026 532,-97.2025"/>
</g>
</g>
</svg>
