<?xml version="1.0" encoding="UTF-8" standalone="no"?>
<!DOCTYPE svg PUBLIC "-//W3C//DTD SVG 1.1//EN"
 "http://www.w3.org/Graphics/SVG/1.1/DTD/svg11.dtd">
<!-- Generated by graphviz version 2.26.3 (20100126.1600)
 -->
<!-- Title: _anonymous_0 Pages: 1 -->
<svg width="450pt" height="50pt"
 viewBox="0.00 0.00 450.00 50.31" xmlns="http://www.w3.org/2000/svg" xmlns:xlink="http://www.w3.org/1999/xlink">
<g id="graph1" class="graph" transform="scale(0.402504 0.402504) rotate(0) translate(4 121)">
<title>_anonymous_0</title>
<polygon fill="white" stroke="white" points="-4,5 -4,-121 1115,-121 1115,5 -4,5"/>
<text text-anchor="middle" x="555" y="-12" font-family="Sans" font-size="30.00">Users Sign Promises To Give Control Over Bitcoins To Other People</text>
<g id="graph2" class="cluster"><title>cluster_top</title>
<polygon fill="none" stroke="black" stroke-width="0" points="8,-51 8,-109 1102,-109 1102,-51 8,-51"/>
</g>
<!-- charlie -->
<g id="node2" class="node"><title>charlie</title>
<text text-anchor="middle" x="1033" y="-70.5" font-family="Sans" font-size="30.00">Charlie</text>
</g>
<!-- alice -->
<g id="node3" class="node"><title>alice</title>
<text text-anchor="middle" x="61" y="-70.5" font-family="Sans" font-size="30.00">Alice</text>
</g>
<!-- bob -->
<g id="node4" class="node"><title>bob</title>
<text text-anchor="middle" x="539" y="-70.5" font-family="Sans" font-size="30.00">Bob</text>
</g>
<!-- alice&#45;&gt;bob -->
<g id="edge3" class="edge"><title>alice&#45;&gt;bob</title>
<path fill="none" stroke="black" stroke-width="3.75" d="M105.54,-80C191.126,-80 378.742,-80 476.687,-80"/>
<polygon fill="black" stroke="black" points="476.775,-88.7501 501.775,-80 476.775,-71.2501 476.775,-88.7501"/>
</g>
<!-- bob&#45;&gt;charlie -->
<g id="edge5" class="edge"><title>bob&#45;&gt;charlie</title>
<path fill="none" stroke="black" stroke-width="3.75" d="M576.13,-80C654.259,-80 837.415,-80 946.617,-80"/>
<polygon fill="black" stroke="black" points="946.692,-88.7501 971.692,-80 946.692,-71.2501 946.692,-88.7501"/>
</g>
</g>
</svg>
